<svg width="34" height="34" viewBox="0 0 34 34" fill="none" xmlns="http://www.w3.org/2000/svg">
    <path d="M15.6264 12.0846C16.0414 11.6697 16.0414 10.9969 15.6264 10.582C15.2115 10.1671 14.5388 10.1671 14.1239 10.582L8.45719 16.2487C8.24972 16.4561 8.146 16.7281 8.146 17C8.146 17.1441 8.17467 17.2815 8.22662 17.4067C8.27847 17.5319 8.35532 17.6494 8.45719 17.7512L14.1239 23.4179C14.5388 23.8328 15.2115 23.8328 15.6264 23.4179C16.0414 23.003 16.0414 22.3303 15.6264 21.9154L11.7736 18.0625H25.5002C26.0869 18.0625 26.5627 17.5868 26.5627 17C26.5627 16.4132 26.0869 15.9375 25.5002 15.9375H11.7736L15.6264 12.0846Z" fill="currentColor"/>
</svg>
