<svg width="24" height="24" viewBox="0 0 24 24" fill="none" xmlns="http://www.w3.org/2000/svg">
<path fill-rule="evenodd" clip-rule="evenodd" d="M5.71419 4.85002C5.51304 4.85002 5.30131 4.93734 5.13143 5.12451C4.95907 5.31443 4.8499 5.58821 4.8499 5.88891V19.1111C4.8499 19.4118 4.95907 19.6856 5.13143 19.8755C5.30131 20.0627 5.51304 20.15 5.71419 20.15H15.1499V12V5.88891C15.1499 5.58821 15.0407 5.31443 14.8684 5.12451C14.6985 4.93734 14.4868 4.85002 14.2856 4.85002H5.71419ZM5.71419 21.85H15.9999H17.9999C18.7558 21.85 19.4807 21.5498 20.0152 21.0153C20.5496 20.4808 20.8499 19.7559 20.8499 19V12C20.8499 11.5306 20.4693 11.15 19.9999 11.15H16.8499V5.88891C16.8499 5.18769 16.5978 4.50058 16.1272 3.98202C15.6541 3.46073 14.9938 3.15002 14.2856 3.15002H5.71419C5.00603 3.15002 4.34569 3.46073 3.87258 3.98202C3.40196 4.50058 3.1499 5.18769 3.1499 5.88891V19.1111C3.1499 19.8124 3.40196 20.4995 3.87258 21.018C4.34568 21.5393 5.00603 21.85 5.71419 21.85ZM16.8499 20.15V12.85H19.1499V19C19.1499 19.305 19.0287 19.5975 18.8131 19.8132C18.5974 20.0289 18.3049 20.15 17.9999 20.15H16.8499ZM7.9999 8.15002C7.53046 8.15002 7.1499 8.53058 7.1499 9.00002C7.1499 9.46947 7.53046 9.85002 7.9999 9.85002H11.9999C12.4693 9.85002 12.8499 9.46947 12.8499 9.00002C12.8499 8.53058 12.4693 8.15002 11.9999 8.15002H7.9999ZM7.1499 12C7.1499 11.5306 7.53046 11.15 7.9999 11.15H11.9999C12.4693 11.15 12.8499 11.5306 12.8499 12C12.8499 12.4695 12.4693 12.85 11.9999 12.85H7.9999C7.53046 12.85 7.1499 12.4695 7.1499 12ZM7.9999 15.15C7.53046 15.15 7.1499 15.5306 7.1499 16C7.1499 16.4695 7.53046 16.85 7.9999 16.85H10.9999C11.4693 16.85 11.8499 16.4695 11.8499 16C11.8499 15.5306 11.4693 15.15 10.9999 15.15H7.9999Z" fill="currentColor"/>
</svg>
