<svg width="24" height="24" viewBox="0 0 24 24" fill="none" xmlns="http://www.w3.org/2000/svg">
<path fill-rule="evenodd" clip-rule="evenodd" d="M3.8499 12.5C3.8499 7.9989 7.49878 4.35002 11.9999 4.35002C12.8908 4.35002 13.7467 4.49266 14.547 4.7557C14.993 4.90228 15.4733 4.65958 15.6199 4.21361C15.7665 3.76764 15.5238 3.28728 15.0778 3.1407C14.1084 2.82206 13.0734 2.65002 11.9999 2.65002C6.5599 2.65002 2.1499 7.06002 2.1499 12.5C2.1499 17.94 6.5599 22.35 11.9999 22.35C17.4399 22.35 21.8499 17.94 21.8499 12.5C21.8499 12.0306 21.4693 11.65 20.9999 11.65C20.5305 11.65 20.1499 12.0306 20.1499 12.5C20.1499 17.0011 16.501 20.65 11.9999 20.65C7.49878 20.65 3.8499 17.0011 3.8499 12.5ZM19.6022 8.09976C19.9335 7.7671 19.9323 7.22891 19.5996 6.89768C19.267 6.56646 18.7288 6.56762 18.3976 6.90029L12.0495 13.276L9.62083 10.6781C9.30024 10.3351 8.76236 10.317 8.41943 10.6376C8.0765 10.9582 8.05839 11.4961 8.37898 11.839L11.4093 15.0805C11.5668 15.249 11.7861 15.3463 12.0168 15.3499C12.2475 15.3536 12.4698 15.2633 12.6325 15.0998L19.6022 8.09976Z" fill="currentColor"/>
</svg>
