<svg width="24" height="24" viewBox="0 0 24 24" fill="none" xmlns="http://www.w3.org/2000/svg">
<path fill-rule="evenodd" clip-rule="evenodd" d="M12.4199 5.25C8.41586 5.25 5.16992 8.49594 5.16992 12.5C5.16992 16.5041 8.41586 19.75 12.4199 19.75C16.424 19.75 19.6699 16.5041 19.6699 12.5C19.6699 8.49594 16.424 5.25 12.4199 5.25ZM3.66992 12.5C3.66992 7.66751 7.58743 3.75 12.4199 3.75C17.2524 3.75 21.1699 7.66751 21.1699 12.5C21.1699 17.3325 17.2524 21.25 12.4199 21.25C7.58743 21.25 3.66992 17.3325 3.66992 12.5Z" fill="currentColor"/>
<path fill-rule="evenodd" clip-rule="evenodd" d="M11.2697 9.80875C10.3361 10.5768 9.71245 11.6571 9.51409 12.8496L9.07616 15.4824C8.84874 16.8496 10.4385 17.7675 11.5088 16.8869L13.5699 15.1912C14.5035 14.4232 15.1272 13.3429 15.3255 12.1504L15.7635 9.51756C15.9909 8.15035 14.4012 7.23251 13.3308 8.11307L11.2697 9.80875ZM12.4199 11C11.5915 11 10.9199 11.6716 10.9199 12.5C10.9199 13.3284 11.5915 14 12.4199 14C13.2483 14 13.9199 13.3284 13.9199 12.5C13.9199 11.6716 13.2483 11 12.4199 11Z" fill="currentColor"/>
</svg>
