<svg width="24" height="24" viewBox="0 0 24 24" fill="none" xmlns="http://www.w3.org/2000/svg">
    <path fill-rule="evenodd" clip-rule="evenodd" d="M3.58008 10.5298C3.58008 7.8293 5.94922 5.75 8.73008 5.75C10.1635 5.75 11.4249 6.42214 12.3301 7.29183C13.2353 6.42214 14.4966 5.75 15.9301 5.75C18.711 5.75 21.0801 7.8293 21.0801 10.5298C21.0801 12.3797 20.2912 14.0064 19.1983 15.3815C18.1072 16.7543 16.6801 17.9193 15.3136 18.866C14.7916 19.2276 14.2636 19.5611 13.7804 19.8072C13.3266 20.0383 12.8048 20.25 12.3301 20.25C11.8554 20.25 11.3336 20.0383 10.8798 19.8072C10.3966 19.5611 9.86854 19.2276 9.34661 18.866C7.98013 17.9193 6.55295 16.7543 5.4619 15.3815C4.36896 14.0064 3.58008 12.3797 3.58008 10.5298ZM8.73008 7.25C6.65083 7.25 5.08008 8.7791 5.08008 10.5298C5.08008 11.9333 5.67587 13.24 6.63617 14.4482C7.59836 15.6588 8.893 16.7269 10.2008 17.633C10.6957 17.9758 11.1618 18.2675 11.5606 18.4706C11.9887 18.6886 12.2368 18.75 12.3301 18.75C12.4234 18.75 12.6715 18.6886 13.0996 18.4706C13.4984 18.2675 13.9645 17.9758 14.4594 17.633C15.7672 16.7269 17.0618 15.6588 18.024 14.4482C18.9843 13.24 19.5801 11.9333 19.5801 10.5298C19.5801 8.7791 18.0093 7.25 15.9301 7.25C14.7359 7.25 13.6209 7.96342 12.9247 8.86892C12.7827 9.05356 12.563 9.16176 12.3301 9.16176C12.0972 9.16176 11.8775 9.05356 11.7355 8.86892C11.0393 7.96342 9.92423 7.25 8.73008 7.25Z" fill="currentColor"/>
</svg>
