<svg width="24" height="24" viewBox="0 0 24 24" fill="none" xmlns="http://www.w3.org/2000/svg">
<path fill-rule="evenodd" clip-rule="evenodd" d="M14.3849 15.9457C11.7346 18.0684 7.8552 17.9013 5.39842 15.4445C2.76238 12.8085 2.76238 8.53464 5.39842 5.8986C8.03446 3.26256 12.3083 3.26256 14.9443 5.8986C17.4011 8.35538 17.5682 12.2348 15.4455 14.8851L20.6012 20.0407C20.8941 20.3336 20.8941 20.8085 20.6012 21.1014C20.3083 21.3943 19.8334 21.3943 19.5405 21.1014L14.3849 15.9457ZM6.45908 14.3839C4.40883 12.3336 4.40883 9.00951 6.45908 6.95926C8.50933 4.90901 11.8334 4.90901 13.8837 6.95926C15.9324 9.00801 15.9339 12.3287 13.8882 14.3794C13.8867 14.3809 13.8852 14.3823 13.8837 14.3839C13.8822 14.3854 13.8807 14.3869 13.8792 14.3884C11.8286 16.4341 8.50783 16.4326 6.45908 14.3839Z" fill="currentColor"/>
</svg>
