<svg width="24" height="24" viewBox="0 0 24 24" fill="none" xmlns="http://www.w3.org/2000/svg">
<path fill-rule="evenodd" clip-rule="evenodd" d="M6.8499 8.50002C6.8499 6.76033 8.26021 5.35002 9.9999 5.35002C11.7396 5.35002 13.1499 6.76033 13.1499 8.50002C13.1499 10.2397 11.7396 11.65 9.9999 11.65C8.26021 11.65 6.8499 10.2397 6.8499 8.50002ZM9.9999 3.65002C7.32132 3.65002 5.1499 5.82144 5.1499 8.50002C5.1499 11.1786 7.32132 13.35 9.9999 13.35C12.6785 13.35 14.8499 11.1786 14.8499 8.50002C14.8499 5.82144 12.6785 3.65002 9.9999 3.65002ZM4.8499 18.4167C4.8499 18.0137 5.17855 17.4979 6.21827 17.0388C7.2078 16.6018 8.58414 16.35 9.9999 16.35C11.3956 16.35 12.7708 16.6431 13.7678 17.1047C14.2668 17.3357 14.6327 17.5912 14.8629 17.8378C15.0845 18.0753 15.1475 18.2656 15.1498 18.4085C15.1418 18.4301 15.105 18.4982 14.9626 18.6088C14.7442 18.7786 14.3796 18.9616 13.8649 19.1271C12.8445 19.455 11.4362 19.65 9.9999 19.65C8.3014 19.65 6.90326 19.4521 5.9612 19.1316C5.48754 18.9704 5.18096 18.7955 5.00759 18.6425C4.84883 18.5024 4.84976 18.4287 4.8499 18.4174L4.8499 18.4167ZM15.1518 18.4011C15.152 18.4011 15.1518 18.403 15.1505 18.4068C15.1509 18.403 15.1516 18.4011 15.1518 18.4011ZM9.9999 14.65C8.41567 14.65 6.792 14.9271 5.53154 15.4837C4.32125 16.0181 3.1499 16.9607 3.1499 18.4167C3.1499 19.0456 3.46745 19.5507 3.88284 19.9173C4.2876 20.2744 4.82476 20.5406 5.4136 20.741C6.59654 21.1435 8.1984 21.35 9.9999 21.35C11.5636 21.35 13.1553 21.1407 14.385 20.7455C14.9952 20.5494 15.5682 20.2913 16.0059 19.951C16.4403 19.6134 16.8499 19.1034 16.8499 18.4167C16.8499 17.7271 16.536 17.139 16.1057 16.6779C15.6796 16.2213 15.108 15.8518 14.482 15.562C13.229 14.9819 11.6042 14.65 9.9999 14.65ZM16.1538 12.4185C16.1989 11.9512 16.6142 11.6089 17.0814 11.6539C18.2956 11.7709 19.4221 12.0866 20.2733 12.5788C21.0977 13.0555 21.8499 13.82 21.8499 14.8733C21.8499 15.4192 21.641 15.9171 21.2348 16.3126C20.8518 16.6855 20.3291 16.935 19.7317 17.1043C19.2801 17.2323 18.8102 16.97 18.6821 16.5184C18.5541 16.0667 18.8164 15.5968 19.2681 15.4688C19.7157 15.3419 19.9429 15.1978 20.0487 15.0947C20.1313 15.0143 20.1499 14.9536 20.1499 14.8733C20.1499 14.7166 20.0327 14.4034 19.4223 14.0505C18.8388 13.713 17.9652 13.447 16.9184 13.3461C16.4511 13.3011 16.1088 12.8858 16.1538 12.4185ZM17.9999 3.65002C17.5305 3.65002 17.1499 4.03058 17.1499 4.50002C17.1499 4.96947 17.5305 5.35002 17.9999 5.35002C18.9112 5.35002 19.6499 6.08875 19.6499 7.00002C19.6499 7.91129 18.9112 8.65002 17.9999 8.65002C17.5305 8.65002 17.1499 9.03058 17.1499 9.50002C17.1499 9.96947 17.5305 10.35 17.9999 10.35C19.8501 10.35 21.3499 8.85018 21.3499 7.00002C21.3499 5.14987 19.8501 3.65002 17.9999 3.65002Z" fill="currentColor"/>
</svg>
