<svg width="40" height="40" viewBox="0 0 40 40" fill="none" xmlns="http://www.w3.org/2000/svg">
    <g clip-path="url(#clip2_3705_1585)">
        <path d="M32 0H8C3.58172 0 0 3.58172 0 8V32C0 36.4183 3.58172 40 8 40H32C36.4183 40 40 36.4183 40 32V8C40 3.58172 36.4183 0 32 0Z" fill="#303237"/>
        <path d="M20.0043 8.00265C19.3437 8.00265 18.683 8.00067 18.0204 8.00265C15.6793 8.01017 14.1013 10.292 14.9215 12.4777C14.9953 12.6757 15.0139 12.6788 15.1643 12.5386C16.7241 11.0849 18.5767 10.4397 20.6944 10.6358C22.2815 10.7819 23.6612 11.4353 24.821 12.5319C24.9797 12.6824 24.9956 12.6796 25.073 12.4689C25.7864 10.5348 24.6504 8.47549 22.6371 8.05928C22.4229 8.01719 22.205 7.99742 21.9867 8.00027C21.3261 8.00463 20.6654 8.00265 20.0043 8.00265Z" fill="white"/>
        <path d="M14.6481 31.9804C14.8155 32.0006 24.9932 32.0089 25.3769 31.9871C25.2578 31.9147 25.1602 31.8549 25.0622 31.7982C23.8838 31.1147 23.089 30.1314 22.7335 28.8111C22.6938 28.6618 22.645 28.636 22.5057 28.6923C21.4124 29.1213 20.2266 29.2614 19.0632 29.099C18.5185 29.0323 17.9849 28.8948 17.476 28.6899C17.3645 28.6435 17.3046 28.6467 17.2677 28.7881C16.8995 30.1955 16.0305 31.2038 14.7679 31.896C14.7274 31.9182 14.6878 31.9412 14.6489 31.965C14.6453 31.9646 14.6477 31.9745 14.6481 31.9804Z" fill="white"/>
        <path d="M19.9887 20.2329C18.1972 20.2329 16.4061 20.2361 14.6149 20.2281C14.436 20.2281 14.3943 20.2749 14.4015 20.4456C14.4158 20.7948 14.4169 21.1453 14.4015 21.4942C14.3927 21.6867 14.4352 21.7473 14.6447 21.7465C17.8373 21.7386 21.0299 21.7367 24.2224 21.7409C24.6125 21.7409 25.0025 21.7318 25.3922 21.7453C25.5636 21.7512 25.5997 21.6934 25.5945 21.5346C25.5826 21.1655 25.5834 20.7956 25.5945 20.4258C25.5989 20.2745 25.5628 20.2277 25.4025 20.2277C23.8153 20.2345 22.2282 20.2317 20.6434 20.2317L19.9887 20.2329Z" fill="white"/>
        <path d="M22.5724 18.8017C21.8283 18.3863 21.1561 17.8539 20.5817 17.2251C20.4126 17.0406 20.2496 16.8501 20.0972 16.6525C20.0178 16.5519 19.9833 16.5428 19.9016 16.6493C19.4881 17.189 19.0095 17.6759 18.4767 18.0987C18.1434 18.3595 17.791 18.595 17.4224 18.8033L22.5724 18.8017Z" fill="white"/>
        <path d="M13.0191 20.6729C13.0191 20.2373 13.0155 19.8016 13.0214 19.366C13.0214 19.2452 12.9857 19.2076 12.8627 19.2076C12.4592 19.2108 12.0608 19.2021 11.6966 19.4341C11.1533 19.781 10.8907 20.4123 11.0426 21.0653C11.1768 21.6427 11.7172 22.1084 12.3278 22.1655C12.5048 22.1817 12.685 22.169 12.8627 22.1797C12.9865 22.1869 13.0214 22.1366 13.0214 22.0185C13.0147 21.5702 13.0191 21.1216 13.0191 20.6729Z" fill="white"/>
        <path d="M27.0243 20.6911C27.0243 21.1128 27.035 21.535 27.0195 21.956C27.0124 22.1476 27.0814 22.1817 27.2556 22.1829C27.6948 22.1853 28.1091 22.1314 28.4595 21.832C28.9479 21.415 29.1213 20.8024 28.9142 20.1897C28.7297 19.6436 28.1801 19.2432 27.5742 19.2128C27.0243 19.1854 27.0243 19.1854 27.0243 19.7224V20.6911Z" fill="white"/>
        <path d="M22.0163 16.6699C20.9723 15.6997 20.2688 14.5342 20.0351 13.1113C20.0275 13.0705 20.0232 13.0018 20.0188 12.9307C20.0138 12.85 20.0086 12.7661 19.9982 12.7157C19.9877 12.7665 19.9826 12.8514 19.9777 12.9326C19.9733 13.005 19.9691 13.0745 19.9615 13.1145C19.9486 13.1752 19.9374 13.2365 19.9261 13.2977C19.9029 13.4233 19.8797 13.5489 19.8434 13.6705C19.2526 15.6506 17.9932 17.0402 16.1097 17.8683C15.6173 18.0831 15.0882 18.2015 14.5511 18.2172C14.4431 18.2207 14.3967 18.1974 14.4035 18.0786C14.4088 17.9857 14.4076 17.8924 14.4064 17.7991C14.4055 17.7273 14.4046 17.6556 14.4066 17.5839C14.4717 15.4094 15.4351 13.7509 17.3341 12.6891C18.788 11.8761 20.3394 11.7878 21.9087 12.347C23.2098 12.8103 24.1919 13.6661 24.8763 14.8625C25.4513 15.8672 25.637 16.957 25.5929 18.0987C25.5894 18.1993 25.5556 18.2219 25.4648 18.2176C25.2529 18.2092 25.042 18.1857 24.8335 18.1475C23.7471 17.9372 22.819 17.416 22.0163 16.6699Z" fill="white"/>
        <path fill-rule="evenodd" clip-rule="evenodd" d="M14.7235 23.1405H19.9766C21.7476 23.1397 23.5191 23.1407 25.2912 23.1436C25.3068 23.1437 25.3235 23.1424 25.3404 23.1412C25.4255 23.1347 25.5148 23.1279 25.4801 23.2902C25.386 23.7301 25.2575 24.1602 25.0591 24.5618C24.3683 25.951 23.3045 26.9359 21.8288 27.446C20.4944 27.9042 19.1544 27.8816 17.8609 27.3272C16.0956 26.5747 14.9802 25.2441 14.5437 23.367L14.5435 23.3658C14.491 23.1405 14.4909 23.1405 14.7235 23.1405ZM20.1305 25.818C20.0865 25.8178 20.0424 25.8175 19.9984 25.8175C19.9561 25.8175 19.9138 25.8179 19.8714 25.8183C19.7817 25.8191 19.6918 25.8198 19.6016 25.8172C19.2072 25.81 18.9044 25.5221 18.8874 25.1404C18.883 24.9567 18.9498 24.7785 19.0738 24.6428C19.1978 24.5071 19.3696 24.4245 19.5532 24.4121C19.8503 24.3947 20.1481 24.3947 20.4452 24.4121C20.6287 24.4243 20.8003 24.5069 20.9241 24.6426C21.0479 24.7783 21.1143 24.9565 21.1094 25.14C21.0923 25.5213 20.7892 25.8104 20.3952 25.8175C20.3068 25.8189 20.2186 25.8184 20.1305 25.818Z" fill="white"/>
    </g>
    <defs>
        <clipPath id="clip0_3705_1585">
            <rect width="168" height="40" fill="white"/>
        </clipPath>
    </defs>
</svg>
